# xmcd
#
# Track frame offsets: 
#        150
#        113087
#        180897
#
# Disc length: 3508 seconds
#
# Revision: 1
# Processed by: cddbd v1.5.2PL0 Copyright (c) Steve Scherf et al.
# Submitted via: ExactAudioCopyFreeDBPlugin 1.0
#
DISCID=170db203
DTITLE=Charles Mingus - Charles Mingus:   Jazz in Detroit (Strata Conc
DTITLE=ert Gallery - 46 Selden)
DYEAR=2018
DGENRE=Jazz
TTITLE0=Pithecanthropus Erectus
TTITLE1=The Man Who Never Sleeps
TTITLE2=Peggy's Blue Skylight
EXTD=YEAR: 1973
EXTT0=
EXTT1=
EXTT2=
PLAYORDER=
